<?xml version="1.0" encoding="UTF-8"?>
<svg width="1200pt" height="1200pt" version="1.1" viewBox="0 0 1200 1200" xmlns="http://www.w3.org/2000/svg">
    <defs>
        <clipPath id="b">
            <path d="m418 372h364v456h-364z"/>
        </clipPath>
        <clipPath id="a">
            <path d="m332.82 137.22 729.96 195.59-195.59 729.96-729.96-195.59z"/>
        </clipPath>
        <!-- Define a mask with a white circle in the center -->
        <mask id="mask1" maskUnits="userSpaceOnUse" maskContentUnits="userSpaceOnUse" x="0" y="" width="1200"
              height="1200">
            <!-- Black background covering the whole SVG -->
            <rect x="0" y="0" width="1200" height="1200" fill="black"/>
            <!-- White circle to reveal the background. Rotate this circle. -->
            <circle cx="600" cy="600" r="200" fill="white" transform="rotate(90 600 600)"/>
        </mask>
        <mask id="mask2" maskUnits="userSpaceOnUse" maskContentUnits="userSpaceOnUse" x="0" y="" width="1200"
              height="1200">
            <!-- Black background covering the whole SVG -->
            <rect x="0" y="0" width="1200" height="1200" fill="black"/>
            <!-- White circle to reveal the background. Rotate this circle. -->
            <circle cx="600" cy="600" r="200" fill="white" transform="rotate(90 600 600)"/>
        </mask>
    </defs>
    <!-- Background rect that uses the mask -->
    <rect x="0" y="0" width="433" height="620" fill="#E97451" transform="rotate(120 610 580)" mask="url(#mask1)"/>
    <rect x="0" y="0" width="620" height="770" fill="#fff" transform="rotate(45 530 656)" mask="url(#mask2)"/>
    <g clip-path="url(#b)">
        <g clip-path="url(#a)">
            <path d="m719.38 386.07c-75.27-41.996-189.73 19.742-255.65 137.88-65.93 118.16-58.348 247.98 16.914 289.97 75.27 41.996 189.72-19.734 255.65-137.89 65.914-118.14 58.344-247.97-16.918-289.97zm-225.59 128.7c-49.953 89.363-52.633 202.33-52.633 202.33-13.078-123.67 52.633-202.33 52.633-202.33zm203.05-88.285c-16.852-9.4062-28.727-20.215-26.539-24.152 2.1992-3.9414 17.637 0.48438 34.488 9.8906 16.852 9.4062 28.719 20.215 26.527 24.156-2.2031 3.9336-17.633-0.49219-34.477-9.8945z"
                  fill="#708137"/>
        </g>
    </g>
    <!-- Horizontal Line -->
    <line x1="550" y1="600" x2="650" y2="600" stroke="#F5F5DC" stroke-width="20"/>
    <!-- Vertical Line -->
    <line x1="600" y1="550" x2="600" y2="650" stroke="#F5F5DC" stroke-width="20"/>
</svg>