<?xml version="1.0" encoding="UTF-8"?>
<svg width="1200pt" height="1200pt" version="1.1" viewBox="0 0 1200 1200" xmlns="http://www.w3.org/2000/svg">
 <g fill="#4c1b23">
  <path d="m772.95 84h-10.559c22.859 41.352 269.1 518.72-73.934 524.94-20.652 0.42969-38.559 3.0586-54.387 3.0586h-59.773c-15.383 0-32.797-2.375-52.777-2.7227-342.88-4.8633-103.63-483.93-81.441-525.28h-10.992s-300.96 548.43 86.004 553.92c21.551 0.37109 60.996 1.3555 77.566 1.5859l-9.2891 460.79-169.56 15.539-17.949 12.164h417.25l-17.93-12.758-169.69-14.746-9.7422-460.2c17.062-0.32422 57.047-2.2695 79.309-2.7461 387.2-7.0234 77.891-553.55 77.891-553.55z"/>
  <path d="m823.26 288h-41.074c5.6992 17.855 10.477 34.078 13.859 45.266 19.812 65.855-32.207 194.75-60.539 166.82-28.176-27.84 17.617-68.676 19.547-110.89 1.4531-30.816-9.3359-67.105-20.941-101.21l-351.82-0.003907c-40.223 132-48.887 296.43 145.61 299.18 18.418 0.33594 34.473 0.82812 48.656 0.82812h55.141c14.594 0 31.105-0.71875 50.148-1.1289 194.35-3.5273 183.52-166.87 141.41-298.87z"/>
 </g>
</svg>
